<?xml version="1.0" encoding="UTF-8"?>
<svg id="Ebene_1" data-name="Ebene 1" xmlns="http://www.w3.org/2000/svg" version="1.1" viewBox="0 0 200 200">
  <defs>
    <style>
      .cls-1 {
        stroke-width: 0px;
      }

      .cls-1, .cls-2 {
        fill: #3ab8b7;
      }

      .cls-2 {
        font-family: Montserrat-ExtraBold, 'Montserrat ExtraBold';
        font-size: 23.2px;
        font-weight: 700;
      }
    </style>
  </defs>
  <text class="cls-2" transform="translate(67.18 134.75)"><tspan x="0" y="0" xml:space="preserve">T   B   S</tspan></text>
  <path class="cls-1" d="M99.71,25.16c-37.61,0-68.09,30.49-68.09,68.09,0,13.3,3.83,25.7,10.42,36.19,1.16-8.37,8.33-14.82,17.02-14.82,2.33,0,4.54.47,6.57,1.3,1.03-4.93,5.4-8.63,10.63-8.63,2.78,0,5.31,1.05,7.23,2.77,3.03-11.66,13.63-20.26,26.23-20.26,14.33,0,26.05,11.12,27.03,25.2,1.16-.25,2.37-.38,3.6-.38,8.69,0,15.86,6.45,17.02,14.82,6.59-10.49,10.42-22.89,10.42-36.19,0-37.61-30.49-68.09-68.09-68.09ZM140.6,49.22l-37.11,22.69-10.51,14.88c-1.49,2.11-3.63,3.66-6.1,4.42l-6.1,1.88,4.17-10.1-24.01,11.15c-3.45,1.9-7.1,3.4-10.88,4.48-1.56.44-2.8-1.33-1.85-2.64l4.63-6.42-7.44-3.02,7.61-4.83,8.74.5,16.68-9.71-34.14-4.17,10.06-5.24c1.44-.75,3.03-1.19,4.65-1.3l43.15-2.76,19.59-11.09c4.69-2.66,10.16-3.58,15.46-2.61l2.75.5c1.66.3,2.07,2.49.64,3.38Z"/>
</svg>